<?xml version="1.0" standalone="no"?>
<!DOCTYPE svg PUBLIC "-//W3C//DTD SVG 20010904//EN"
 "http://www.w3.org/TR/2001/REC-SVG-20010904/DTD/svg10.dtd">
<svg version="1.0" xmlns="http://www.w3.org/2000/svg"
 width="225.000000pt" height="225.000000pt" viewBox="0 0 225.000000 225.000000"
 preserveAspectRatio="xMidYMid meet">

<g transform="translate(0.000000,225.000000) scale(0.100000,-0.100000)"
fill="#ea580c" stroke="none">
<path d="M1084 2113 c-21 -27 -46 -54 -56 -61 -9 -7 -23 -18 -30 -25 -7 -7
-41 -32 -76 -56 -40 -29 -59 -48 -54 -55 27 -35 21 -45 -51 -85 -40 -21 -91
-56 -115 -76 -103 -89 -172 -238 -172 -370 0 -78 9 -113 53 -205 43 -90 152
-200 241 -241 36 -17 66 -36 66 -42 -1 -7 -7 -23 -15 -37 -22 -39 -19 -46 38
-69 28 -12 73 -37 100 -56 47 -35 47 -35 47 -93 0 -32 -3 -61 -6 -65 -6 -5
-46 15 -176 87 -60 34 -205 143 -276 210 -142 132 -224 314 -226 501 -1 92 1
105 29 160 18 36 63 94 110 144 86 90 83 94 -25 43 -69 -33 -198 -158 -233
-228 -79 -156 -75 -339 12 -547 48 -115 74 -155 201 -307 103 -122 127 -160
144 -227 l11 -42 110 90 c80 65 117 89 138 89 30 0 127 -45 127 -59 0 -5 -21
-16 -46 -25 -70 -24 -128 -61 -168 -108 -78 -91 -25 -191 74 -141 39 20 54 61
36 101 -7 18 -5 25 10 37 23 18 136 55 147 48 4 -2 7 -37 7 -78 0 -63 -4 -80
-25 -111 -29 -42 -30 -55 -11 -93 37 -71 176 -69 210 4 18 37 14 57 -21 98
-19 23 -23 40 -23 92 0 90 3 94 51 84 33 -8 113 -42 127 -54 2 -2 -2 -19 -9
-39 -15 -42 -1 -77 38 -95 32 -15 91 -4 103 20 41 75 -36 169 -186 230 -51 20
-62 28 -51 37 24 21 102 52 127 51 16 0 64 -32 135 -89 l110 -88 7 39 c10 57
46 112 164 250 126 148 195 273 229 419 55 232 6 414 -154 563 -47 44 -177
117 -210 117 -7 0 24 -39 70 -87 155 -161 177 -266 104 -496 -31 -100 -68
-163 -150 -260 -70 -84 -263 -228 -400 -300 -102 -54 -95 -56 -95 21 l0 67 58
37 c31 20 75 45 97 54 22 10 42 19 44 21 2 1 -6 21 -18 44 -12 23 -21 42 -19
44 2 1 23 9 47 19 133 52 269 195 308 325 24 80 22 218 -5 293 -42 118 -145
229 -269 295 -53 28 -71 42 -67 53 16 39 12 46 -48 85 -61 39 -145 117 -175
163 -9 12 -19 22 -23 22 -4 0 -25 -21 -46 -47z m-145 -365 c21 -51 62 -218 72
-293 19 -134 -5 -315 -51 -397 -6 -10 -10 -24 -10 -32 0 -71 -206 79 -263 190
-53 105 -53 232 -2 335 33 64 116 152 178 188 63 37 65 37 76 9z m453 -4 c72
-36 163 -130 195 -201 23 -49 27 -71 27 -148 0 -61 -6 -102 -17 -126 -23 -52
-101 -152 -144 -185 -62 -47 -117 -84 -128 -84 -6 0 -16 19 -23 43 -6 23 -23
82 -37 131 -28 98 -33 209 -14 312 17 94 71 284 81 284 5 0 32 -12 60 -26z"/>
</g>
</svg>
